<svg xmlns="http://www.w3.org/2000/svg" xmlns:xlink="http://www.w3.org/1999/xlink" viewBox="0 0 288 288"><defs><style>.f712a91a-32bd-4c39-bc6c-f9dccfd4e5f4{fill:url(#e49c7dd5-2e1b-4590-aa5c-962c526b9892);}.ba8f054f-aba1-42b4-80a4-222090f47563{fill:url(#f7ebb299-87ea-42b0-ae17-5b941ab05abc);}.a361b358-bc0c-4ba9-bf40-869ce2e31ab0{fill:url(#bd60dacc-24ca-4304-aa0b-304f61e4910d);}</style><linearGradient id="e49c7dd5-2e1b-4590-aa5c-962c526b9892" x1="49.89" y1="108.98" x2="243.87" y2="108.98" gradientUnits="userSpaceOnUse"><stop offset="0" stop-color="#f6eed5"/><stop offset="0.03" stop-color="#eae6d3"/><stop offset="0.11" stop-color="#cfd5cf"/><stop offset="0.19" stop-color="#bcc9cb"/><stop offset="0.27" stop-color="#b1c2ca"/><stop offset="0.36" stop-color="#adc0c9"/><stop offset="0.88" stop-color="#65a7c9"/><stop offset="0.93" stop-color="#63a6c9"/><stop offset="0.95" stop-color="#5ca3c7"/><stop offset="0.97" stop-color="#519ec4"/><stop offset="0.98" stop-color="#4096c0"/><stop offset="0.99" stop-color="#2a8cbb"/><stop offset="1" stop-color="#0f80b5"/><stop offset="1" stop-color="#0079b1"/></linearGradient><linearGradient id="f7ebb299-87ea-42b0-ae17-5b941ab05abc" x1="8.94" y1="118.21" x2="284.79" y2="164.15" gradientUnits="userSpaceOnUse"><stop offset="0.27" stop-color="#006092"/><stop offset="0.28" stop-color="#015b8d"/><stop offset="0.35" stop-color="#064472"/><stop offset="0.42" stop-color="#09335f"/><stop offset="0.5" stop-color="#0b2954"/><stop offset="0.57" stop-color="#0c2650"/><stop offset="0.91" stop-color="#1d3d70"/><stop offset="0.96" stop-color="#0c2650"/></linearGradient><linearGradient id="bd60dacc-24ca-4304-aa0b-304f61e4910d" x1="13.22" y1="140.9" x2="292.67" y2="146.84" gradientUnits="userSpaceOnUse"><stop offset="0" stop-color="#65a7c9"/><stop offset="0.01" stop-color="#5fa5c9"/><stop offset="0.05" stop-color="#3d99c9"/><stop offset="0.1" stop-color="#2290ca"/><stop offset="0.15" stop-color="#0f8aca"/><stop offset="0.2" stop-color="#0486ca"/><stop offset="0.26" stop-color="#0085ca"/><stop offset="0.62" stop-color="#0079b1"/><stop offset="0.8" stop-color="#006092"/><stop offset="0.94" stop-color="#0c2650"/></linearGradient></defs><g id="afd9a625-9fbc-4bff-adb6-4b614f302c4e" data-name="Layer 2"><circle class="f712a91a-32bd-4c39-bc6c-f9dccfd4e5f4" cx="146.88" cy="108.98" r="96.99"/><path class="ba8f054f-aba1-42b4-80a4-222090f47563" d="M4.62,101.35c0-29.25,37.79-80.53,69.75-58,15.19,9.45,28,26.4,40.43,109C152.16,1.18,196.66.69,209.87.69c37,0,74.24,67.77,74.24,103.09,0,39.41-8.4,101.5-73.92,101-66.65-.53-71.33-149.4-93.35-149.74-25.91.08-52.17,157.88-52.51,172.75.1-70.29,25.23-235.28,63.42-207.84,34.68,19.79,36.37,181.29,82.07,181.29,19.49,0,46-41,46-99.19,0-54.09-26.74-96.94-45.16-96.94-37.19,0-70.78,170-93.77,282.52C106.27,118.6,55.27,7.77,4.62,101.35Z"/><path class="a361b358-bc0c-4ba9-bf40-869ce2e31ab0" d="M4.68,101.3c0-29.24,37.8-80.53,69.75-58,15.2,9.45,28,26.39,40.44,109C152.23,1.14,196.73.64,209.94.64c37.05,0,74.24,67.78,74.24,103.1,0,39.4-28.34,56.44-28.34-1.76C255.84,47.88,229.1,5,210.68,5c-37.2,0-70.78,170-93.77,282.51C106.34,118.55,55.34,7.73,4.68,101.3"/></g></svg>