<svg xmlns="http://www.w3.org/2000/svg" xmlns:xlink="http://www.w3.org/1999/xlink" viewBox="0 0 288 288"><defs><style>.bcbc68c0-86e7-4039-95b3-e1732e133c45{fill:#0c2650;}.b80fbdac-35b5-4f18-ab5c-9bfb72080611{fill:url(#bf658d99-7f8b-46eb-b019-1580929ff414);}.ae87f25f-970d-481d-b5a1-f85ed952e024{fill:url(#a022977f-d2e3-44d3-ac3b-13b4afcc3e00);}.ad3eb574-4003-486d-be72-b5e935bad097{fill:url(#b8324916-711f-484e-bf7f-243209f3a441);}</style><linearGradient id="bf658d99-7f8b-46eb-b019-1580929ff414" x1="50.82" y1="109.26" x2="244.28" y2="109.26" gradientUnits="userSpaceOnUse"><stop offset="0" stop-color="#f6eed5"/><stop offset="0.03" stop-color="#eae6d3"/><stop offset="0.11" stop-color="#cfd5cf"/><stop offset="0.19" stop-color="#bcc9cb"/><stop offset="0.27" stop-color="#b1c2ca"/><stop offset="0.36" stop-color="#adc0c9"/><stop offset="0.71" stop-color="#adc0c9"/><stop offset="0.79" stop-color="#aabfc9"/><stop offset="0.86" stop-color="#a0bbc9"/><stop offset="0.91" stop-color="#8fb6c9"/><stop offset="0.97" stop-color="#78aec9"/><stop offset="1" stop-color="#65a7c9"/></linearGradient><linearGradient id="a022977f-d2e3-44d3-ac3b-13b4afcc3e00" x1="9.32" y1="143.96" x2="288.82" y2="144.32" gradientUnits="userSpaceOnUse"><stop offset="0.22" stop-color="#0079b1"/><stop offset="0.22" stop-color="#0077af"/><stop offset="0.25" stop-color="#045a8d"/><stop offset="0.28" stop-color="#084372"/><stop offset="0.32" stop-color="#0a335f"/><stop offset="0.35" stop-color="#0c2954"/><stop offset="0.39" stop-color="#0c2650"/><stop offset="0.46" stop-color="#0b2c57"/><stop offset="0.56" stop-color="#093c69"/><stop offset="0.68" stop-color="#055688"/><stop offset="0.8" stop-color="#0079b1"/><stop offset="0.96" stop-color="#65a7c9"/></linearGradient><linearGradient id="b8324916-711f-484e-bf7f-243209f3a441" x1="13.64" y1="140.92" x2="293.09" y2="146.86" gradientUnits="userSpaceOnUse"><stop offset="0" stop-color="#65a7c9"/><stop offset="0.01" stop-color="#65a7c9"/><stop offset="0.26" stop-color="#65a7c9"/><stop offset="0.61" stop-color="#0386ca"/><stop offset="0.62" stop-color="#0085ca"/><stop offset="0.8" stop-color="#0079b1"/><stop offset="0.94" stop-color="#65a7c9"/></linearGradient></defs><g id="ac812af8-1bcd-44b6-8f3d-daa748c5e6ec" data-name="Layer 2"><polygon class="bcbc68c0-86e7-4039-95b3-e1732e133c45" points="288.04 288.03 0.03 288.05 0.02 0.01 288.04 0.03 288.04 288.03"/><circle class="b80fbdac-35b5-4f18-ab5c-9bfb72080611" cx="147.55" cy="109.26" r="96.73"/><path class="ae87f25f-970d-481d-b5a1-f85ed952e024" d="M5,101.37c0-29.25,37.8-80.53,69.75-58,15.2,9.45,28,26.39,40.44,109C152.58,1.2,197.08.71,210.29.71c37.05,0,74.24,67.77,74.24,103.09,0,39.41-8.4,101.5-73.92,101C144,204.24,139.27,55.37,117.26,55c-25.91.08-52.17,157.88-52.51,172.75C64.85,157.49,90-7.5,128.17,19.94c34.68,19.79,36.37,181.28,82.07,181.28,19.48,0,45.95-41,45.95-99.18,0-54.1-26.74-96.94-45.16-96.94-37.19,0-70.78,170.05-93.77,282.51C106.69,118.62,55.69,7.79,5,101.37Z"/><path class="ad3eb574-4003-486d-be72-b5e935bad097" d="M5.1,101.32c0-29.24,37.8-80.53,69.75-58,15.2,9.44,28,26.39,40.44,109C152.65,1.16,197.15.66,210.36.66c37,0,74.24,67.78,74.24,103.1,0,39.4-28.35,56.44-28.35-1.76,0-54.1-26.73-96.95-45.15-96.95-37.2,0-70.79,170-93.78,282.52C106.76,118.57,55.76,7.75,5.1,101.32"/></g></svg>